PathFileType	4	(X/Y/Z)	C:/Users/opensim2020/Desktop/walking_exp_matlab/subject01_walking13_straight_04.trc	
DataRate	CameraRate	NumFrames	NumMarkers	Units	OrigDataRate	OrigDataStartFrame	OrigNumFrames	
100.00	100.00	7	42	mm	100.00	2109	135	
Frame#	Time	LFHD			RFHD			LBHD			RBHD			C7			T10			CLAV			STRN			RBAK			LSHO			LUPA			LELB			LFRM			LWRA			LWRB			LFIN			RSHO			RUPA			RELB			RFRM			RWRA			RWRB			RFIN			LASI			RASI			LPSI			RPSI			LTHI			LKNE			LTIB			LANK			LHEE			LTOE			RTHI			RKNE			RTIB			RANK			RHEE			RTOE			*39			*40			*41			
		X1	Y1	Z1	X2	Y2	Z2	X3	Y3	Z3	X4	Y4	Z4	X5	Y5	Z5	X6	Y6	Z6	X7	Y7	Z7	X8	Y8	Z8	X9	Y9	Z9	X10	Y10	Z10	X11	Y11	Z11	X12	Y12	Z12	X13	Y13	Z13	X14	Y14	Z14	X15	Y15	Z15	X16	Y16	Z16	X17	Y17	Z17	X18	Y18	Z18	X19	Y19	Z19	X20	Y20	Z20	X21	Y21	Z21	X22	Y22	Z22	X23	Y23	Z23	X24	Y24	Z24	X25	Y25	Z25	X26	Y26	Z26	X27	Y27	Z27	X28	Y28	Z28	X29	Y29	Z29	X30	Y30	Z30	X31	Y31	Z31	X32	Y32	Z32	X33	Y33	Z33	X34	Y34	Z34	X35	Y35	Z35	X36	Y36	Z36	X37	Y37	Z37	X38	Y38	Z38	X39	Y39	Z39	X40	Y40	Z40	X41	Y41	Z41	X42	Y42	Z42	

1	0.000	1479.53381	982.33716	1655.41614	1369.07593	960.44354	1664.73865	1460.70667	1098.10193	1614.84668	1343.50012	1079.21716	1623.52649	1410.22034	1142.91797	1428.77002	1396.05212	1197.55371	1138.15466	1416.93591	1004.63885	1350.42285	1418.93652	971.03656	1194.36853	1323.51270	1207.54419	1241.12463	1574.50000	1075.36536	1380.08350	1647.70288	1162.87585	1214.04956	1642.29321	1221.18054	1073.39429	1664.30798	1209.51196	957.52631	1647.03687	1152.94495	829.79846	1664.19836	1210.60181	835.50055	1678.19873	1179.90979	758.27747	1263.64734	1057.10754	1386.86877	1145.24805	1124.05823	1203.71619	1127.04004	1128.08838	1076.57861	1125.46826	1043.64966	980.83282	1185.73499	927.68445	927.82477	1139.03015	950.31891	902.94257	1154.84595	876.14227	870.79529	1504.95410	1026.35144	928.31006	1287.08984	1035.61060	921.25500	1461.58215	1214.40894	944.18878	1317.90149	1217.59338	951.20001	1589.27124	979.86591	617.11237	1574.40491	940.74219	491.88535	1596.77417	936.71460	308.41028	1562.40210	878.24268	87.91567	1505.38843	904.89240	42.94089	1578.08154	730.07245	98.26277	1249.27832	1168.88086	602.87720	1282.10437	1205.38696	447.26270	1281.13757	1300.68420	298.67734	1335.60925	1381.50061	108.26917	1382.05664	1440.49268	86.70199	1352.13342	1254.23474	40.35484	1391.39124	972.44000	1697.76831	-3101.82520	1973.19421	1023.54474	-3140.60767	2012.48474	1022.07281 
2	0.010	1482.35193	969.39789	1653.92737	1371.82617	947.59436	1663.16895	1463.54932	1085.15723	1613.36218	1346.22864	1066.27246	1622.06494	1413.06104	1130.11633	1427.28735	1398.83228	1184.57495	1136.63220	1419.41833	991.85529	1348.80566	1421.23035	960.15485	1192.39709	1326.23120	1194.95642	1239.89636	1577.16772	1062.29309	1378.34521	1650.22107	1149.68457	1212.06946	1644.46997	1208.21814	1071.63928	1666.27417	1197.37561	955.71631	1648.90979	1141.86157	827.60211	1666.70056	1199.18994	834.04126	1679.94910	1169.36292	756.21204	1266.25269	1044.02490	1385.67432	1147.91345	1111.25464	1202.52380	1129.46423	1115.00891	1075.36426	1128.08728	1029.87817	980.55792	1188.39563	913.22296	928.61566	1141.87366	935.78912	903.41162	1157.32336	861.15656	871.88721	1506.49719	1012.25818	926.71198	1288.16980	1022.59100	920.59375	1464.85303	1200.60364	942.26971	1321.31091	1205.09497	950.17328	1592.09534	968.17780	614.70569	1575.47534	927.70532	490.40259	1597.38354	918.30017	307.26331	1562.41089	854.52692	88.08607	1505.40308	880.06995	42.70375	1577.92212	706.62268	101.80709	1249.81738	1158.44312	602.53284	1282.35229	1196.13000	446.80588	1280.94714	1294.52234	300.31274	1334.63708	1379.38477	111.37592	1381.01563	1438.85840	91.28285	1351.87451	1253.97778	40.33638	1394.26929	959.53430	1696.33740	-3101.95337	1973.23035	1023.60101	-3140.76953	2012.55542	1022.20966 
3	0.020	1485.08459	956.37146	1652.44165	1374.63818	934.78003	1661.79749	1466.51428	1072.15417	1611.90015	1349.21655	1053.47107	1620.71790	1415.95459	1117.24158	1425.86780	1401.67749	1171.45959	1135.09253	1421.94019	979.02698	1347.40918	1423.39124	947.07684	1190.97998	1329.08594	1182.25732	1238.68140	1579.98181	1049.20227	1376.61682	1652.82751	1136.38379	1209.99072	1646.85449	1194.96985	1069.80005	1668.46631	1184.75415	953.84204	1650.92322	1130.13342	825.35876	1668.40210	1187.51904	832.02985	1681.79285	1158.12610	754.05212	1269.08057	1031.63977	1384.44348	1150.55530	1098.33350	1201.28223	1132.08850	1102.02063	1074.15271	1130.70032	1016.12305	980.04010	1190.97034	899.03882	929.21008	1144.16321	921.38226	903.58148	1159.78186	846.66339	872.72479	1507.93604	997.93774	925.13495	1289.63269	1009.89075	919.78571	1468.18774	1186.65625	940.34039	1324.88635	1192.42859	949.00397	1594.29993	955.13757	612.96411	1576.38635	914.13928	489.28473	1597.60608	901.08606	305.96298	1561.89563	834.03033	87.79678	1504.62573	858.90027	42.13251	1577.19287	686.39276	103.79932	1250.50977	1147.16101	602.01306	1282.67859	1185.86670	446.40027	1281.12292	1287.57800	302.04053	1333.71912	1376.78870	114.69295	1379.99915	1436.79346	96.31090	1351.48486	1253.58582	40.31543	1397.06995	946.65094	1694.89575	-3101.96704	1973.12500	1023.55884	-3140.86694	2012.48877	1022.11462 
4	0.030	1488.16223	943.34619	1651.12646	1377.62988	921.85101	1660.60437	1469.56848	1059.15613	1610.54163	1352.37305	1040.61987	1619.42407	1419.09961	1104.37390	1424.56799	1404.54309	1158.20972	1133.59583	1424.60962	966.07758	1346.03455	1425.62366	933.97052	1189.76953	1332.04285	1169.43750	1237.36108	1582.82007	1036.10425	1374.89807	1655.52148	1122.87769	1207.90991	1649.22778	1181.33899	1067.71655	1670.71350	1171.70154	951.86230	1652.95288	1117.78027	823.02130	1670.40991	1175.04053	829.96954	1683.85986	1146.14026	751.96649	1271.85974	1018.66473	1383.26196	1153.35718	1085.52051	1200.12195	1134.76318	1089.19312	1072.97046	1133.23218	1002.87244	979.15546	1193.34326	885.25940	929.38226	1147.02625	907.62823	903.62842	1162.10693	832.57855	873.12537	1509.45508	983.43481	923.80157	1290.97900	996.83643	919.00287	1471.52222	1172.49512	938.38507	1328.48853	1179.47192	947.61926	1595.58276	940.50684	611.75763	1577.04004	899.81409	488.39886	1597.18762	885.09052	304.31140	1560.72754	816.76062	86.92670	1503.36951	841.28552	41.20606	1575.57434	669.12872	103.88237	1251.35144	1135.13269	601.63245	1282.93884	1175.23828	446.16519	1280.75061	1280.30615	303.89822	1332.77808	1373.86072	118.42890	1379.04614	1434.23462	101.93794	1351.23230	1253.16589	40.27864	1400.06433	933.75201	1693.66675	-3101.94727	1973.14282	1023.43207	-3140.78174	2012.61414	1022.16364 
5	0.040	1491.18933	930.29602	1649.84583	1380.58386	908.99622	1659.32031	1472.88281	1046.15735	1609.29919	1355.42603	1027.76953	1618.26135	1422.21716	1091.50195	1423.22839	1407.49585	1144.73596	1132.05188	1427.32947	953.01160	1344.85193	1427.91895	920.67181	1188.64465	1335.19958	1156.92847	1236.17859	1585.80884	1022.91394	1373.28589	1658.24463	1109.25806	1205.77795	1651.73962	1167.30713	1065.54785	1673.07861	1158.04541	949.77020	1655.15759	1104.74670	820.77094	1672.89380	1161.93860	828.02466	1686.29810	1133.53772	750.05627	1274.68469	1005.91376	1382.07239	1156.25171	1072.75903	1199.04065	1137.46497	1076.45313	1071.90381	1135.47119	989.73901	978.52533	1195.59753	871.87811	929.12653	1148.89612	894.04071	903.38110	1164.15344	819.05280	873.07544	1510.85938	968.72321	922.23267	1292.42114	983.48071	918.36023	1474.82886	1158.17700	936.53107	1332.06897	1166.21460	946.12030	1596.24268	924.61145	611.08344	1577.31909	884.57367	487.53809	1596.81091	870.31012	302.66904	1559.17957	802.42133	85.06775	1501.63904	826.98907	39.56037	1573.69397	654.93256	102.21209	1251.90869	1122.85559	601.31262	1282.87183	1163.68237	445.48990	1280.79773	1272.42395	305.89941	1331.77771	1370.51648	122.46877	1377.95886	1431.14001	107.91123	1351.22485	1252.79504	40.48012	1403.18433	920.80548	1692.46667	-3101.91577	1973.12329	1023.54114	-3140.71802	2012.60205	1022.11688 
6	0.050	1494.34729	917.23950	1648.62244	1383.70532	896.14374	1658.18701	1476.19141	1033.11914	1608.11377	1358.66077	1014.71387	1617.14575	1425.48352	1078.54932	1421.90417	1410.47583	1131.05652	1130.54761	1430.09363	939.96667	1343.74573	1430.35254	907.00610	1187.76587	1338.35632	1143.69409	1234.75793	1588.82813	1009.56525	1371.68237	1661.01025	1095.32751	1203.62036	1654.41919	1152.86096	1063.32861	1675.50586	1143.84204	947.59717	1657.33618	1091.02698	818.48895	1674.99878	1148.25903	825.86176	1688.35669	1119.89563	747.67120	1277.50171	993.38000	1381.08533	1159.22778	1060.20313	1198.00562	1140.25134	1063.80493	1070.95776	1137.21814	976.29370	977.81909	1197.67651	858.90698	928.51678	1151.13586	881.51569	902.70782	1165.99084	806.01740	872.64075	1512.39661	953.78497	921.03223	1293.96301	969.81244	917.64624	1477.98120	1143.55481	934.71222	1335.51648	1152.49072	944.50348	1596.29602	907.81598	610.71277	1577.25049	868.88721	486.68060	1596.06665	856.72803	300.73108	1557.40845	790.96478	82.89431	1499.72205	815.89038	37.62152	1571.50439	643.32697	98.66579	1252.71472	1109.83533	600.96680	1283.08447	1151.41919	445.05228	1280.70056	1263.82629	308.02350	1330.65527	1366.66345	126.80520	1376.86963	1427.57849	114.47485	1350.78284	1252.31360	40.42506	1406.36487	907.90240	1691.32263	-3101.96484	1973.05786	1023.52325	-3140.61597	2012.43872	1022.06409 
7	0.060	1497.52185	904.17419	1647.44336	1386.92737	883.21454	1657.15430	1479.59753	1020.12451	1606.98950	1361.95239	1001.94342	1616.09363	1428.84985	1065.60303	1420.49207	1413.48633	1117.04480	1128.98816	1433.06042	926.81396	1342.81921	1432.82947	893.27557	1186.91577	1341.60303	1130.28650	1233.25256	1592.01965	996.17590	1370.19067	1663.88574	1081.20898	1201.52551	1657.09998	1137.99634	1061.02710	1678.00549	1129.07898	945.37640	1659.59229	1076.60022	816.24628	1677.59900	1133.65991	823.87659	1690.90967	1105.74097	745.77576	1280.62061	980.72192	1380.18738	1162.23230	1047.74316	1197.22205	1143.09656	1051.31152	1070.20325	1140.35205	964.43671	976.73669	1199.61572	846.33307	927.60132	1152.81213	868.52686	901.80109	1167.61682	793.49689	871.77521	1514.27710	938.42792	920.15356	1295.57324	955.83356	916.90320	1480.86377	1128.62048	932.95508	1338.78101	1138.25842	942.87115	1595.83142	890.61041	610.63812	1576.83875	853.00244	485.40826	1594.98767	844.23059	298.27216	1555.12744	781.78998	79.65543	1497.55127	807.70166	35.40916	1568.87891	634.30511	93.65749	1253.64148	1096.11792	600.54755	1283.12659	1138.67932	444.49930	1280.45178	1254.69299	310.31174	1329.47290	1362.20325	131.49811	1375.62952	1423.29565	121.43052	1350.55664	1251.72266	40.41992	1409.55139	895.00488	1690.21619	-3102.05908	1973.12756	1023.43134	-3140.66699	2012.52832	1022.03534 
